# xmcd
#
# Track frame offsets:
# 150
# 34685
# 37587
# 55065
# 59440
# 94982
# 118604
# 133923
# 149897
#
# Disc length: 3023 seconds
#
#
# Revision: 0
# Processed by: cddbd v1.5.1PL2 Copyright (c) Steve Scherf et al.
# Submitted via: FreeRIP 2.945 
#
DISCID=820bcd09
DTITLE=Sol.illaquists of Sound - The Truth Don't Need Support
DYEAR=2003
DGENRE=Hip-Hop
TTITLE0=Deez Intro
TTITLE1=3eez
TTITLE2=Property and Malt Liquor
TTITLE3=Ask Me...
TTITLE4=Markit Place
TTITLE5=Transformation
TTITLE6=Medea
TTITLE7=Gonn
TTITLE8=911?
EXTD=
EXTT0=
EXTT1=
EXTT2=
EXTT3=
EXTT4=
EXTT5=
EXTT6=
EXTT7=
EXTT8=
PLAYORDER=
